# xmcd
#
# Track frame offsets:
#	150
#	17622
#	38560
#	60727
#	80910
#	98395
#	112700
#	135795
#	157637
#	177050
#	195925
#	217947
#	236410
#	252240
#	271592
#	290017
#	308075
#
# Disc length: 4349 seconds
#
# Revision: 5
# Processed by: cddbd v1.5.2PL0 Copyright (c) Steve Scherf et al.
# Submitted via: audiograbber 1.83.01
#
DISCID=c110fb11
DTITLE=Diverse - Still Loving You [CD1)
DYEAR=1991
DGENRE=Ballad
TTITLE0=Roxette - Fading Like A Flower
TTITLE1=Phil Collins - Do You Remember?
TTITLE2=Paula Abdul - Rush Rush
TTITLE3=Karl Keaton - Loves Burn
TTITLE4=Vaya Con Dios - What's A Women?
TTITLE5=Jason Donavan - Rythm Of The Rain
TTITLE6=Elton John - Sacrifice
TTITLE7=Mike and The Mechanics - A Time And Place
TTITLE8=Tina Turner - Be Tender With Me Baby
TTITLE9=Gary Moore - Still Got The Blues (For You)
TTITLE10=Feargal Sharkey - I've Got News For You
TTITLE11=Wilson Phillips - You're In Love
TTITLE12=Chesney Hawkes - Ordinary Girl
TTITLE13=T'pau - Whenever You Need Me
TTITLE14=Stevie B. - I'll Be Your Side
TTITLE15=Randy Vanwarmer - Just When I Needed You Most
TTITLE16=The Korgis - Everybod's Got To Learn Sometime
EXTD=
EXTT0=
EXTT1=
EXTT2=
EXTT3=
EXTT4=
EXTT5=
EXTT6=
EXTT7=
EXTT8=
EXTT9=
EXTT10=
EXTT11=
EXTT12=
EXTT13=
EXTT14=
EXTT15=
EXTT16=
PLAYORDER=
